
        <svg xmlns="http://www.w3.org/2000/svg" xmlns:xlink="http://www.w3.org/1999/xlink" version="1.1" width="3192" height="3192" viewBox="0 0 3192 3192">
			
			<g transform="scale(9.6) translate(10, 10)">
				<defs id="SvgjsDefs3468"/><g id="SvgjsG3469" featureKey="rootContainer" transform="matrix(3.125,0,0,3.125,0,0)" fill="#fff"><circle xmlns="http://www.w3.org/2000/svg" cx="50" cy="50" r="50"/></g><g id="SvgjsG3470" featureKey="symbolFeature-0" transform="matrix(0.78125,0,0,0.78125,106,56.4375)" fill="#000000"><title xmlns="http://www.w3.org/2000/svg">entetainment 2 final line black</title><path xmlns="http://www.w3.org/2000/svg" d="M100.33,98.88a1,1,0,0,0-1.27.63,35.94,35.94,0,0,1-68.13,0,1,1,0,1,0-1.89.65,37.93,37.93,0,0,0,71.91,0A1,1,0,0,0,100.33,98.88Z"/><path xmlns="http://www.w3.org/2000/svg" d="M54.95,91.59A1,1,0,0,0,54,92.67a11,11,0,0,0,21.93,0,1,1,0,1,0-2-.16,9,9,0,0,1-17.95,0A1,1,0,0,0,54.95,91.59Z"/><path xmlns="http://www.w3.org/2000/svg" d="M95,87.49V45.36a1,1,0,1,0-2,0V87.49a1,1,0,1,0,2,0Z"/><path xmlns="http://www.w3.org/2000/svg" d="M99,81.39V51.45a1,1,0,1,0-2,0V81.39a1,1,0,1,0,2,0Z"/><path xmlns="http://www.w3.org/2000/svg" d="M31,81.39V51.45a1,1,0,1,0-2,0V81.39a1,1,0,1,0,2,0Z"/><path xmlns="http://www.w3.org/2000/svg" d="M91,96.11V39.75a1,1,0,1,0-2,0V96.11a1,1,0,1,0,2,0Z"/><path xmlns="http://www.w3.org/2000/svg" d="M87,80.89V52a1,1,0,1,0-2,0V80.89a1,1,0,1,0,2,0Z"/><path xmlns="http://www.w3.org/2000/svg" d="M83,86V46.88a1,1,0,1,0-2,0V86a1,1,0,1,0,2,0Z"/><path xmlns="http://www.w3.org/2000/svg" d="M79,76.32V56.52a1,1,0,1,0-2,0v19.8a1,1,0,1,0,2,0Z"/><path xmlns="http://www.w3.org/2000/svg" d="M75,79.87V53a1,1,0,1,0-2,0v26.9a1,1,0,1,0,2,0Z"/><path xmlns="http://www.w3.org/2000/svg" d="M71,84.95V47.89a1,1,0,1,0-2,0V84.95a1,1,0,1,0,2,0Z"/><path xmlns="http://www.w3.org/2000/svg" d="M26,58.56a1,1,0,0,0-1,1v13.7a1,1,0,1,0,2,0V59.57A1,1,0,0,0,26,58.56Z"/><path xmlns="http://www.w3.org/2000/svg" d="M102,58.56a1,1,0,0,0-1,1v13.7a1,1,0,1,0,2,0V59.57A1,1,0,0,0,102,58.56Z"/><path xmlns="http://www.w3.org/2000/svg" d="M35,87.49V45.36a1,1,0,1,0-2,0V87.49a1,1,0,1,0,2,0Z"/><path xmlns="http://www.w3.org/2000/svg" d="M39,96.11V39.75a1,1,0,1,0-2,0V96.11a1,1,0,1,0,2,0Z"/><path xmlns="http://www.w3.org/2000/svg" d="M43,89.07V45.79a1,1,0,1,0-2,0V89.07a1,1,0,1,0,2,0Z"/><path xmlns="http://www.w3.org/2000/svg" d="M51,80.89V52a1,1,0,1,0-2,0V80.89a1,1,0,1,0,2,0Z"/><path xmlns="http://www.w3.org/2000/svg" d="M47,79.51V53.34a1,1,0,1,0-2,0V79.51a1,1,0,1,0,2,0Z"/><path xmlns="http://www.w3.org/2000/svg" d="M54,45.87a1,1,0,0,0-1,1V86a1,1,0,1,0,2,0V46.88A1,1,0,0,0,54,45.87Z"/><path xmlns="http://www.w3.org/2000/svg" d="M59,76.32V56.52a1,1,0,1,0-2,0v19.8a1,1,0,1,0,2,0Z"/><path xmlns="http://www.w3.org/2000/svg" d="M63,79.87V53a1,1,0,1,0-2,0v26.9a1,1,0,1,0,2,0Z"/><path xmlns="http://www.w3.org/2000/svg" d="M67,84.95V47.89a1,1,0,1,0-2,0V84.95a1,1,0,1,0,2,0Z"/><path xmlns="http://www.w3.org/2000/svg" d="M64,2C28.71,2,0,30.9,0,66.42a1,1,0,0,0,1,1H4.48v0A12.56,12.56,0,0,0,15,79.86a3,3,0,0,0,3,2.69h2a3,3,0,0,0,3-3V52.35a3,3,0,0,0-3-3H18A3,3,0,0,0,15,52,12.56,12.56,0,0,0,4.48,64.43v1H2C2.54,31.46,30.15,4,64,4s61.46,27.45,62,61.4h-2v-1A12.56,12.56,0,0,0,113.45,52a3,3,0,0,0-3-2.69h-2a3,3,0,0,0-3,3V79.53a3,3,0,0,0,3,3h2a3,3,0,0,0,3-2.69A12.56,12.56,0,0,0,124,67.45v0h3a1,1,0,0,0,1-1C128,30.9,99.29,2,64,2ZM17,52.35a1,1,0,0,1,1-1h2a1,1,0,0,1,1,1V79.53a1,1,0,0,1-1,1H18a1,1,0,0,1-1-1ZM6.48,64.43A10.57,10.57,0,0,1,15,54.06V77.82a10.57,10.57,0,0,1-8.5-10.37Zm105,15.1a1,1,0,0,1-1,1h-2a1,1,0,0,1-1-1V52.35a1,1,0,0,1,1-1h2a1,1,0,0,1,1,1ZM122,67.45a10.57,10.57,0,0,1-8.5,10.37V54.06A10.57,10.57,0,0,1,122,64.43Z"/></g><g id="SvgjsG3471" featureKey="nameFeature-0" transform="matrix(1.0893580805914873,0,0,1.0893580805914873,53.76670508492325,161.8302216415504)" fill="#000000"><path d="M25.488 12.09 l-17.852 12.402 l0 -12.402 l-5.5859 0 l0 27.91 l5.5859 0 l0 -8.7109 l7.7148 -5.3516 l12.422 14.063 l7.4414 0 l-15.254 -17.285 l15.293 -10.625 l-9.7656 0 z M39.3554875 12.09 l0 27.91 l33.496 0 l0 -5.5859 l-27.91 0 l0 -22.324 l-5.5859 0 z M104.86334375 26.035 l-22.324 0 l0 -2.793 q0 -2.3046875 1.640625 -3.9453125 t3.9453 -1.6406 l16.738 0 l0 8.3789 z M76.95314375 40 l5.5859 0 l0 -8.3789 l22.324 0 l0 8.3789 l5.5859 0 l0 -27.91 l-22.324 0 q-4.62890625 0 -7.890625 3.26171875 q-3.28125 3.28125 -3.28125 7.890625 l0 16.758 z M114.5508 12.09 l0 27.91 l5.5859 0 l0 -22.344 l16.758 0 q2.3046875 0 3.9453125 1.640625 q1.62109375 1.640625 1.62109375 3.9453125 l0 16.758 l5.5859 0 l0 -16.758 q0 -4.609375 -3.26171875 -7.890625 q-3.28125 -3.26171875 -7.890625 -3.26171875 l-22.344 0 z M152.14845625 40 l33.496 0 l0 -16.758 l-19.531 0 l0 5.5859 l13.945 0 l0 5.5859 l-22.324 0 l0 -11.172 q0 -2.3046875 1.640625 -3.9453125 t3.9453 -1.6406 l22.324 0 l0 -5.5664 l-22.324 0 q-4.62890625 0 -7.890625 3.26171875 q-3.28125 3.28125 -3.28125 7.890625 l0 16.758 z"/></g><g id="SvgjsG3472" featureKey="nameFeature-1" transform="matrix(1.3671604863583309,0,0,1.3671604863583309,53.195815475265384,198.471373721338)" fill="#000000"><path d="M29.961 12.09 l0 11.152 l-22.324 0 l0 -11.152 l-5.5859 0 l0 27.91 l5.5859 0 l0 -11.172 l22.324 0 l0 11.172 l5.5859 0 l0 -27.91 l-5.5859 0 z M67.55865625 26.035 l-22.324 0 l0 -2.793 q0 -2.3046875 1.640625 -3.9453125 t3.9453 -1.6406 l16.738 0 l0 8.3789 z M39.64845625 40 l5.5859 0 l0 -8.3789 l22.324 0 l0 8.3789 l5.5859 0 l0 -27.91 l-22.324 0 q-4.62890625 0 -7.890625 3.26171875 q-3.28125 3.28125 -3.28125 7.890625 l0 16.758 z M105.1563125 34.4141 l-16.738 0 q-2.3046875 0 -3.9453125 -1.640625 t-1.6406 -3.9453 l0 -16.738 l-5.5859 0 l0 16.738 q0 4.62890625 3.28125 7.890625 q3.26171875 3.28125 7.890625 3.28125 l22.324 0 l0 -27.91 l-5.5859 0 l0 22.324 z M114.84376875 28.828 l27.91 0 q0 2.3046875 -1.62109375 3.9453125 q-1.640625 1.640625 -3.9453125 1.640625 l-22.344 0 l0 5.5859 l22.344 0 q4.609375 0 7.890625 -3.28125 q3.26171875 -3.26171875 3.26171875 -7.890625 l0 -5.5859 l-27.91 0 q0 -2.3046875 1.640625 -3.9453125 t3.9453 -1.6406 l22.324 0 l0 -5.5664 l-22.324 0 q-4.62890625 0 -7.890625 3.26171875 q-3.28125 3.28125 -3.28125 7.890625 l0 5.5859 z"/></g>
			</g>
		</svg>
	